<mxfile host="Electron" agent="Mozilla/5.0 (Windows NT 10.0; Win64; x64) AppleWebKit/537.36 (KHTML, like Gecko) draw.io/24.7.8 Chrome/128.0.6613.36 Electron/32.0.1 Safari/537.36" version="24.7.8">
  <diagram id="tFx8NVUHpEqBDBRQr2UT" name="Page-1">
    <mxGraphModel dx="780" dy="514" grid="1" gridSize="10" guides="1" tooltips="1" connect="1" arrows="1" fold="1" page="1" pageScale="1" pageWidth="850" pageHeight="1100" math="0" shadow="0">
      <root>
        <mxCell id="0" />
        <mxCell id="1" parent="0" />
        <mxCell id="s9tLqinfn0IwJTN6Mwgx-2" value="Text" style="rounded=1;whiteSpace=wrap;html=1;absoluteArcSize=1;arcSize=8;container=1;collapsible=0;recursiveResize=0;dashed=1;align=left;verticalAlign=top;spacing=0;spacingLeft=4;spacingTop=-2;spacingBottom=0;" parent="1" vertex="1">
          <mxGeometry x="270" y="100" width="100" height="70" as="geometry" />
        </mxCell>
        <mxCell id="s9tLqinfn0IwJTN6Mwgx-1" value="Links:External" style="rounded=0;whiteSpace=wrap;html=1;spacingBottom=0;spacingLeft=4;" parent="s9tLqinfn0IwJTN6Mwgx-2" vertex="1">
          <mxGeometry x="10" y="20" width="80" height="40" as="geometry" />
        </mxCell>
        <mxCell id="3hbLnrp9_bpLFZFguhfJ-1" value="Records" style="rounded=0;whiteSpace=wrap;html=1;spacingBottom=0;spacingLeft=4;" vertex="1" parent="1">
          <mxGeometry x="280" y="200" width="80" height="40" as="geometry" />
        </mxCell>
        <mxCell id="3hbLnrp9_bpLFZFguhfJ-2" value="Replace Links to ShortUrls?" style="rounded=0;whiteSpace=wrap;html=1;spacingBottom=0;spacingLeft=4;" vertex="1" parent="1">
          <mxGeometry x="400" y="120" width="80" height="40" as="geometry" />
        </mxCell>
        <mxCell id="3hbLnrp9_bpLFZFguhfJ-3" value="Links:Internal" style="rounded=0;whiteSpace=wrap;html=1;spacingBottom=0;spacingLeft=4;" vertex="1" parent="1">
          <mxGeometry x="400" y="180" width="80" height="40" as="geometry" />
        </mxCell>
        <mxCell id="3hbLnrp9_bpLFZFguhfJ-4" value="Created, Modified&lt;br&gt;Dates" style="rounded=0;whiteSpace=wrap;html=1;spacingBottom=0;spacingLeft=4;" vertex="1" parent="1">
          <mxGeometry x="220" y="260" width="80" height="40" as="geometry" />
        </mxCell>
        <mxCell id="3hbLnrp9_bpLFZFguhfJ-5" value="MS Word Special Characters" style="rounded=0;whiteSpace=wrap;html=1;spacingBottom=0;spacingLeft=4;" vertex="1" parent="1">
          <mxGeometry x="320" y="260" width="80" height="40" as="geometry" />
        </mxCell>
        <mxCell id="3hbLnrp9_bpLFZFguhfJ-6" value="Logical Archive Flagging" style="rounded=0;whiteSpace=wrap;html=1;spacingBottom=0;spacingLeft=4;" vertex="1" parent="1">
          <mxGeometry x="410" y="260" width="80" height="40" as="geometry" />
        </mxCell>
        <mxCell id="3hbLnrp9_bpLFZFguhfJ-7" value="Physical Archiving" style="rounded=0;whiteSpace=wrap;html=1;spacingBottom=0;spacingLeft=4;" vertex="1" parent="1">
          <mxGeometry x="500" y="260" width="80" height="40" as="geometry" />
        </mxCell>
        <mxCell id="3hbLnrp9_bpLFZFguhfJ-8" value="Field Length/ Truncation Issues" style="rounded=0;whiteSpace=wrap;html=1;spacingBottom=0;spacingLeft=4;" vertex="1" parent="1">
          <mxGeometry x="220" y="310" width="80" height="40" as="geometry" />
        </mxCell>
        <mxCell id="3hbLnrp9_bpLFZFguhfJ-10" value="Character Case" style="rounded=0;whiteSpace=wrap;html=1;spacingBottom=0;spacingLeft=4;" vertex="1" parent="1">
          <mxGeometry x="320" y="320" width="80" height="40" as="geometry" />
        </mxCell>
        <mxCell id="3hbLnrp9_bpLFZFguhfJ-13" value="Number Type &amp;amp; Range" style="rounded=0;whiteSpace=wrap;html=1;spacingBottom=0;spacingLeft=4;" vertex="1" parent="1">
          <mxGeometry x="410" y="320" width="80" height="40" as="geometry" />
        </mxCell>
        <mxCell id="3hbLnrp9_bpLFZFguhfJ-14" value="+/- Number Signage&amp;nbsp;" style="rounded=0;whiteSpace=wrap;html=1;spacingBottom=0;spacingLeft=4;" vertex="1" parent="1">
          <mxGeometry x="510" y="320" width="80" height="40" as="geometry" />
        </mxCell>
        <mxCell id="3hbLnrp9_bpLFZFguhfJ-15" value="Logical Columns" style="rounded=0;whiteSpace=wrap;html=1;spacingBottom=0;spacingLeft=4;" vertex="1" parent="1">
          <mxGeometry x="610" y="320" width="80" height="40" as="geometry" />
        </mxCell>
        <mxCell id="3hbLnrp9_bpLFZFguhfJ-16" value="Indexing" style="rounded=0;whiteSpace=wrap;html=1;spacingBottom=0;spacingLeft=4;" vertex="1" parent="1">
          <mxGeometry x="610" y="370" width="80" height="40" as="geometry" />
        </mxCell>
        <mxCell id="3hbLnrp9_bpLFZFguhfJ-17" value="Stored Procs" style="rounded=0;whiteSpace=wrap;html=1;spacingBottom=0;spacingLeft=4;" vertex="1" parent="1">
          <mxGeometry x="610" y="420" width="80" height="40" as="geometry" />
        </mxCell>
        <mxCell id="3hbLnrp9_bpLFZFguhfJ-18" value="Views" style="rounded=0;whiteSpace=wrap;html=1;spacingBottom=0;spacingLeft=4;" vertex="1" parent="1">
          <mxGeometry x="700" y="370" width="80" height="40" as="geometry" />
        </mxCell>
      </root>
    </mxGraphModel>
  </diagram>
</mxfile>
